<svg width="35" height="35" viewBox="0 0 35 35" fill="none" xmlns="http://www.w3.org/2000/svg">
<path d="M33.0265 16.774C31.5766 10.2191 29.3945 6.72043 26.1577 5.76477C25.4773 5.56516 24.7716 5.46545 24.0625 5.46877C23.1253 5.46877 22.3091 5.69709 21.4457 5.93908C20.4053 6.23098 19.2233 6.56252 17.5 6.56252C15.7767 6.56252 14.594 6.23166 13.5516 5.93977C12.6875 5.69709 11.872 5.46877 10.9375 5.46877C10.2043 5.46619 9.47429 5.56558 8.76846 5.76408C5.54873 6.71564 3.36806 10.2129 1.89697 16.7699C0.315135 23.826 1.09375 28.281 4.08037 29.3146C4.48975 29.4589 4.92051 29.5333 5.35459 29.5347C7.40058 29.5347 9.04121 27.8305 10.1623 26.4353C11.429 24.8562 12.9117 24.055 17.5 24.055C21.5981 24.055 23.2941 24.6108 24.7591 26.4353C25.6799 27.5823 26.5501 28.3849 27.4183 28.8901C28.5728 29.5613 29.7268 29.7104 30.8472 29.3255C32.6122 28.7233 33.6239 27.1312 33.855 24.5923C34.0307 22.6454 33.76 20.0881 33.0265 16.774ZM14.2187 16.4063H12.0312V18.5938C12.0312 18.8839 11.916 19.1621 11.7109 19.3672C11.5058 19.5723 11.2276 19.6875 10.9375 19.6875C10.6474 19.6875 10.3692 19.5723 10.1641 19.3672C9.95898 19.1621 9.84375 18.8839 9.84375 18.5938V16.4063H7.65625C7.36617 16.4063 7.08797 16.291 6.88285 16.0859C6.67773 15.8808 6.5625 15.6026 6.5625 15.3125C6.5625 15.0224 6.67773 14.7442 6.88285 14.5391C7.08797 14.334 7.36617 14.2188 7.65625 14.2188H9.84375V12.0313C9.84375 11.7412 9.95898 11.463 10.1641 11.2579C10.3692 11.0528 10.6474 10.9375 10.9375 10.9375C11.2276 10.9375 11.5058 11.0528 11.7109 11.2579C11.916 11.463 12.0312 11.7412 12.0312 12.0313V14.2188H14.2187C14.5088 14.2188 14.787 14.334 14.9921 14.5391C15.1973 14.7442 15.3125 15.0224 15.3125 15.3125C15.3125 15.6026 15.1973 15.8808 14.9921 16.0859C14.787 16.291 14.5088 16.4063 14.2187 16.4063ZM19.9609 16.6797C19.6905 16.6797 19.4262 16.5995 19.2014 16.4493C18.9765 16.2991 18.8013 16.0855 18.6978 15.8357C18.5943 15.5859 18.5673 15.311 18.62 15.0458C18.6728 14.7806 18.803 14.537 18.9942 14.3458C19.1854 14.1546 19.429 14.0244 19.6942 13.9716C19.9594 13.9188 20.2343 13.9459 20.4841 14.0494C20.734 14.1529 20.9475 14.3281 21.0977 14.553C21.2479 14.7778 21.3281 15.0421 21.3281 15.3125C21.3281 15.6751 21.1841 16.0229 20.9277 16.2793C20.6713 16.5357 20.3235 16.6797 19.9609 16.6797ZM22.9687 19.6875C22.6982 19.6875 22.4337 19.6072 22.2088 19.4569C21.9839 19.3065 21.8087 19.0928 21.7053 18.8427C21.6019 18.5927 21.5751 18.3176 21.6281 18.0523C21.6811 17.787 21.8117 17.5434 22.0032 17.3524C22.1948 17.1613 22.4387 17.0314 22.7041 16.979C22.9696 16.9266 23.2446 16.9542 23.4943 17.0582C23.7441 17.1622 23.9574 17.338 24.1072 17.5633C24.257 17.7885 24.3366 18.0532 24.3359 18.3237C24.335 18.6858 24.1906 19.0326 23.9343 19.2883C23.678 19.5439 23.3308 19.6875 22.9687 19.6875ZM22.9687 13.6719C22.6983 13.6719 22.434 13.5917 22.2092 13.4415C21.9843 13.2913 21.8091 13.0777 21.7056 12.8279C21.6022 12.5781 21.5751 12.3032 21.6278 12.038C21.6806 11.7728 21.8108 11.5292 22.002 11.338C22.1932 11.1468 22.4368 11.0165 22.702 10.9638C22.9672 10.911 23.2421 10.9381 23.4919 11.0416C23.7418 11.1451 23.9553 11.3203 24.1055 11.5451C24.2558 11.77 24.3359 12.0343 24.3359 12.3047C24.3359 12.6673 24.1919 13.0151 23.9355 13.2715C23.6791 13.5279 23.3314 13.6719 22.9687 13.6719ZM25.9766 16.6797C25.7062 16.6797 25.4418 16.5995 25.217 16.4493C24.9922 16.2991 24.8169 16.0855 24.7134 15.8357C24.61 15.5859 24.5829 15.311 24.6356 15.0458C24.6884 14.7806 24.8186 14.537 25.0098 14.3458C25.201 14.1546 25.4446 14.0244 25.7098 13.9716C25.975 13.9188 26.2499 13.9459 26.4998 14.0494C26.7496 14.1529 26.9631 14.3281 27.1133 14.553C27.2636 14.7778 27.3437 15.0421 27.3437 15.3125C27.3437 15.6751 27.1997 16.0229 26.9433 16.2793C26.6869 16.5357 26.3392 16.6797 25.9766 16.6797Z" fill="url(#paint0_linear_27_1254)"/>
<defs>
<linearGradient id="paint0_linear_27_1254" x1="17.5014" y1="5.46869" x2="17.5014" y2="29.5347" gradientUnits="userSpaceOnUse">
<stop stop-color="white"/>
<stop offset="1" stop-color="#999999"/>
</linearGradient>
</defs>
</svg>
