<svg width="69" height="69" viewBox="0 0 69 69" fill="none" xmlns="http://www.w3.org/2000/svg">
<path d="M32.2 30.475C35.075 33.35 38.525 34.7875 42.55 34.7875L42.8375 40.825C37.375 40.825 32.4875 38.8125 28.175 34.7875L26.1625 32.775L19.55 39.675L25.875 45.7125V62.9625H20.125V48.0125L16.3875 44.5625V50.8875L4.31251 63.25L0.287506 59.225L10.6375 48.875L7.18751 38.8125C6.61251 37.0875 7.47501 35.65 8.91251 34.5L18.4 25.0125C19.55 23.575 20.9875 23 22.425 23C23.8625 23 24.725 23.2875 25.5875 23.8625L32.2 30.475ZM69 34.2125H63.25V24.4375L58.075 22.425L60.6625 35.075L63.5375 50.025L66.125 62.675H60.0875L54.9125 39.675L48.875 45.425V62.675H43.125V41.1125L49.1625 35.3625L47.4375 26.7375C45.7125 28.4625 43.7 30.1875 41.4 31.3375C38.8125 31.05 36.225 29.9 34.2125 27.8875C38.8125 27.025 41.975 24.725 43.9875 21.275L46.8625 16.675C48.5875 13.8 51.175 12.9375 54.3375 14.375L69 20.7V34.2125ZM32.775 12.65C35.9375 12.65 38.525 15.2375 38.525 18.4C38.525 21.5625 35.9375 24.15 32.775 24.15C29.6125 24.15 27.025 21.5625 27.025 18.4C27.025 15.2375 29.6125 12.65 32.775 12.65ZM47.4375 0.862488C50.6 0.862488 53.1875 3.44999 53.1875 6.61249C53.1875 9.77499 50.6 12.3625 47.4375 12.3625C44.275 12.3625 41.6875 9.77499 41.6875 6.61249C41.6875 3.44999 44.275 0.862488 47.4375 0.862488Z" fill="url(#paint0_linear_22_393)"/>
<defs>
<linearGradient id="paint0_linear_22_393" x1="34.6438" y1="0.862488" x2="34.6438" y2="63.25" gradientUnits="userSpaceOnUse">
<stop stop-color="white"/>
<stop offset="1" stop-color="#999999"/>
</linearGradient>
</defs>
</svg>
