<svg width="69" height="69" viewBox="0 0 69 69" fill="none" xmlns="http://www.w3.org/2000/svg">
<path d="M34.5 28.75C35.8214 28.75 37.1299 28.4897 38.3508 27.984C39.5716 27.4784 40.6809 26.7372 41.6153 25.8028C42.5497 24.8684 43.2909 23.7591 43.7965 22.5383C44.3022 21.3174 44.5625 20.0089 44.5625 18.6875C44.5625 17.3661 44.3022 16.0576 43.7965 14.8367C43.2909 13.6159 42.5497 12.5066 41.6153 11.5722C40.6809 10.6378 39.5716 9.89665 38.3508 9.39096C37.1299 8.88527 35.8214 8.625 34.5 8.625C31.8313 8.625 29.2718 9.68515 27.3847 11.5722C25.4977 13.4593 24.4375 16.0188 24.4375 18.6875C24.4375 21.3562 25.4977 23.9157 27.3847 25.8028C29.2718 27.6898 31.8313 28.75 34.5 28.75ZM8.625 58.65V60.375H60.375V58.65C60.375 52.21 60.375 48.99 59.1215 46.529C58.019 44.3652 56.2598 42.606 54.096 41.5035C51.635 40.25 48.415 40.25 41.975 40.25H27.025C20.585 40.25 17.365 40.25 14.904 41.5035C12.7402 42.606 10.981 44.3652 9.8785 46.529C8.625 48.99 8.625 52.21 8.625 58.65Z" fill="url(#paint0_linear_22_399)" stroke="url(#paint1_linear_22_399)" stroke-width="2" stroke-linecap="round" stroke-linejoin="round"/>
<defs>
<linearGradient id="paint0_linear_22_399" x1="34.5" y1="8.625" x2="34.5" y2="60.375" gradientUnits="userSpaceOnUse">
<stop stop-color="white"/>
<stop offset="1" stop-color="#999999"/>
</linearGradient>
<linearGradient id="paint1_linear_22_399" x1="34.5" y1="8.625" x2="34.5" y2="60.375" gradientUnits="userSpaceOnUse">
<stop stop-color="white"/>
<stop offset="1" stop-color="#999999"/>
</linearGradient>
</defs>
</svg>
