<svg width="48" height="48" viewBox="0 0 48 48" fill="none" xmlns="http://www.w3.org/2000/svg">
<path d="M40.6875 6.525C40.2856 6.24896 39.8223 6.07543 39.338 6.01955C38.8536 5.96366 38.3629 6.02712 37.9087 6.20438C35.2781 7.22813 29.9662 8.94563 24 8.94563C18.0338 8.94563 12.72 7.22813 10.0856 6.20438C9.6311 6.02794 9.14041 5.96494 8.65605 6.02084C8.17169 6.07674 7.70826 6.24985 7.30587 6.52519C6.90348 6.80053 6.57426 7.16979 6.34672 7.60102C6.11918 8.03224 6.00017 8.51243 6 9V19.4569C6 26.1769 7.80937 32.5163 11.0963 37.3031C14.5013 42.2644 19.0837 44.9906 24 44.9906C28.9163 44.9906 33.4988 42.2588 36.9038 37.3031C40.1906 32.52 42 26.1806 42 19.4606V9C41.9991 8.5118 41.8791 8.03119 41.6504 7.59989C41.4217 7.16858 41.0911 6.79961 40.6875 6.525ZM14.625 24.9994C14.4936 25.1471 14.3345 25.2675 14.1566 25.3538C13.9787 25.44 13.7855 25.4903 13.5882 25.5019C13.1896 25.5253 12.7981 25.3894 12.4997 25.1241C12.2013 24.8588 12.0206 24.4858 11.9972 24.0872C11.9738 23.6887 12.1097 23.2971 12.375 22.9988C13.4531 21.8025 15.4088 21 17.25 21C19.0912 21 21.0469 21.8025 22.125 22.9988C22.2564 23.1465 22.3573 23.3187 22.4222 23.5054C22.487 23.6922 22.5144 23.8899 22.5028 24.0872C22.4912 24.2846 22.4409 24.4777 22.3547 24.6556C22.2685 24.8335 22.1481 24.9927 22.0003 25.1241C21.8526 25.2554 21.6804 25.3564 21.4936 25.4212C21.3069 25.4861 21.1092 25.5135 20.9118 25.5019C20.7145 25.4903 20.5213 25.44 20.3434 25.3538C20.1655 25.2675 20.0064 25.1471 19.875 24.9994C19.3725 24.4369 18.2156 24 17.25 24C16.2844 24 15.12 24.4388 14.625 24.9994ZM31.5919 33.9731C30.6608 35.0779 29.4997 35.9658 28.1896 36.575C26.8796 37.1842 25.4522 37.4998 24.0075 37.4998C22.5627 37.4998 21.1354 37.1842 19.8254 36.575C18.5153 35.9658 17.3542 35.0779 16.4231 33.9731C16.281 33.826 16.1706 33.6514 16.0984 33.46C16.0263 33.2686 15.9941 33.0645 16.0038 32.8602C16.0134 32.6559 16.0648 32.4558 16.1546 32.2721C16.2445 32.0883 16.371 31.9249 16.5263 31.7919C16.6816 31.6588 16.8625 31.559 17.0579 31.4984C17.2532 31.4378 17.4589 31.4178 17.6622 31.4397C17.8656 31.4615 18.0623 31.5247 18.2404 31.6254C18.4184 31.726 18.574 31.862 18.6975 32.025C19.3467 32.8001 20.1579 33.4234 21.0741 33.8511C21.9902 34.2788 22.989 34.5004 24 34.5004C25.011 34.5004 26.0098 34.2788 26.9259 33.8511C27.8421 33.4234 28.6533 32.8001 29.3025 32.025C29.5608 31.7224 29.9288 31.5348 30.3254 31.5035C30.7221 31.4722 31.1149 31.5998 31.4175 31.8581C31.7201 32.1165 31.9077 32.4844 31.939 32.8811C31.9703 33.2777 31.8427 33.6705 31.5844 33.9731H31.5919ZM35.5012 25.125C35.3544 25.2564 35.1831 25.3576 34.9971 25.4228C34.8112 25.488 34.6142 25.5159 34.4174 25.505C34.2206 25.494 34.028 25.4444 33.8504 25.3589C33.6728 25.2734 33.5138 25.1538 33.3825 25.0069C32.88 24.4444 31.7231 24.0075 30.7575 24.0075C29.7919 24.0075 28.6275 24.4463 28.1325 25.0069C28.0006 25.1551 27.8409 25.2759 27.6623 25.3624C27.4838 25.4489 27.29 25.4994 27.0919 25.5109C26.8939 25.5225 26.6955 25.495 26.5081 25.4299C26.3207 25.3648 26.1479 25.2634 25.9997 25.1316C25.8515 24.9997 25.7307 24.8399 25.6442 24.6614C25.5577 24.4829 25.5072 24.289 25.4956 24.091C25.484 23.8929 25.5116 23.6945 25.5767 23.5071C25.6418 23.3197 25.7431 23.147 25.875 22.9988C26.9456 21.8025 28.9013 21 30.75 21C32.5987 21 34.5469 21.8025 35.625 22.9988C35.7572 23.1461 35.859 23.3182 35.9244 23.5051C35.9898 23.692 36.0175 23.89 36.006 24.0877C35.9945 24.2853 35.944 24.4788 35.8573 24.6568C35.7707 24.8348 35.6497 24.994 35.5012 25.125Z" fill="url(#paint0_linear_22_345)"/>
<defs>
<linearGradient id="paint0_linear_22_345" x1="24" y1="5.99985" x2="24" y2="44.9906" gradientUnits="userSpaceOnUse">
<stop stop-color="white"/>
<stop offset="1" stop-color="#2F0101"/>
</linearGradient>
</defs>
</svg>
