<svg width="44" height="46" viewBox="0 0 44 46" fill="none" xmlns="http://www.w3.org/2000/svg">
<path d="M10.3125 15.125H33.6875C33.8699 15.125 34.0447 15.0526 34.1737 14.9236C34.3026 14.7947 34.375 14.6198 34.375 14.4375V6.875C34.375 6.14565 34.0853 5.44618 33.5696 4.93046C33.0539 4.41473 32.3544 4.125 31.625 4.125H12.375C11.6457 4.125 10.9462 4.41473 10.4305 4.93046C9.91477 5.44618 9.62504 6.14565 9.62504 6.875V14.4375C9.62504 14.6198 9.69747 14.7947 9.8264 14.9236C9.95533 15.0526 10.1302 15.125 10.3125 15.125ZM15.125 8.25H17.8286C18.184 8.24475 18.5281 8.37425 18.7918 8.61245C19.0555 8.85065 19.2192 9.17988 19.25 9.53391C19.2625 9.72199 19.2362 9.91063 19.1727 10.0881C19.1092 10.2656 19.0099 10.4281 18.881 10.5656C18.752 10.7031 18.5962 10.8126 18.4232 10.8873C18.2501 10.9621 18.0635 11.0004 17.875 11H15.1714C14.8161 11.0052 14.472 10.8757 14.2083 10.6375C13.9446 10.3993 13.7808 10.0701 13.75 9.71609C13.7376 9.52801 13.7639 9.33937 13.8274 9.16189C13.8908 8.98441 13.9901 8.82187 14.1191 8.68438C14.248 8.54689 14.4039 8.43738 14.5769 8.36266C14.75 8.28793 14.9365 8.24959 15.125 8.25ZM38.5 19.2603C38.5014 19.0789 38.4668 18.899 38.3983 18.731C38.3299 18.5629 38.2288 18.4101 38.101 18.2814C37.9732 18.1526 37.8211 18.0504 37.6536 17.9806C37.4861 17.9109 37.3065 17.875 37.125 17.875H6.87504C6.6936 17.875 6.51395 17.9109 6.34646 17.9806C6.17896 18.0504 6.02692 18.1526 5.8991 18.2814C5.77129 18.4101 5.67022 18.5629 5.60173 18.731C5.53324 18.899 5.49868 19.0789 5.50004 19.2603C5.50437 22.2764 6.33447 25.2338 7.90031 27.8116C9.46615 30.3894 11.708 32.4893 14.3825 33.8834L13.7861 38.0548C13.6961 38.643 13.7942 39.2445 14.0663 39.7736C14.2987 40.2183 14.6483 40.591 15.0773 40.8512C15.5063 41.1114 15.9983 41.2494 16.5 41.25H27.4416C28.0388 41.2581 28.6234 41.0777 29.1122 40.7344C29.5182 40.4406 29.8363 40.0415 30.032 39.5802C30.2276 39.1188 30.2935 38.6128 30.2225 38.1167L29.6175 33.8886C32.2929 32.4941 34.5352 30.3934 36.1011 27.8146C37.667 25.2358 38.4967 22.2773 38.5 19.2603ZM16.5 38.5L17.0036 34.9766C20.2548 36.0078 23.7453 36.0078 26.9964 34.9766L27.5 38.5H16.5Z" fill="black"/>
</svg>
