<svg width="50" height="50" viewBox="0 0 50 50" fill="none" xmlns="http://www.w3.org/2000/svg">
<path d="M37.625 47.9167H41.0834C42.8334 47.9167 44.2709 46.5625 44.4792 44.8542L47.9167 10.5208H37.5V2.08333H33.3959V10.5208H23.0417L23.6667 15.3958C27.2292 16.375 30.5625 18.1458 32.5625 20.1042C35.5625 23.0625 37.625 26.125 37.625 31.125V47.9167ZM2.08337 45.8333V43.75H33.3959V45.8333C33.3959 46.9583 32.4584 47.9167 31.25 47.9167H4.16671C3.02087 47.9167 2.08337 46.9583 2.08337 45.8333ZM33.3959 31.25C33.3959 14.5833 2.08337 14.5833 2.08337 31.25H33.3959ZM2.08337 35.4167H33.3334V39.5833H2.08337V35.4167Z" fill="black"/>
</svg>
