<svg width="48" height="48" viewBox="0 0 48 48" fill="none" xmlns="http://www.w3.org/2000/svg">
<path d="M24 8C21.3478 8 18.8043 9.05357 16.9289 10.9289C15.0536 12.8043 14 15.3478 14 18C14 18.5304 14.2107 19.0391 14.5858 19.4142C14.9609 19.7893 15.4696 20 16 20C16.5304 20 17.0391 19.7893 17.4142 19.4142C17.7893 19.0391 18 18.5304 18 18C18 14.684 20.684 12 24 12C27.316 12 30 14.684 30 18C30 19.632 29.602 20.588 29.124 21.258C28.6 21.988 27.874 22.534 26.868 23.228L26.636 23.384C25.742 23.996 24.59 24.782 23.698 25.878C22.644 27.174 22 28.812 22 31V32C22 32.5304 22.2107 33.0391 22.5858 33.4142C22.9609 33.7893 23.4696 34 24 34C24.5304 34 25.0391 33.7893 25.4142 33.4142C25.7893 33.0391 26 32.5304 26 32V31C26 29.688 26.356 28.952 26.8 28.402C27.314 27.774 28.006 27.298 29.028 26.596L29.134 26.522C30.126 25.842 31.4 24.95 32.374 23.586C33.4 22.162 34 20.366 34 18C34 15.3478 32.9464 12.8043 31.0711 10.9289C29.1957 9.05357 26.6522 8 24 8ZM24 42.5C24.663 42.5 25.2989 42.2366 25.7678 41.7678C26.2366 41.2989 26.5 40.663 26.5 40C26.5 39.337 26.2366 38.7011 25.7678 38.2322C25.2989 37.7634 24.663 37.5 24 37.5C23.337 37.5 22.7011 37.7634 22.2322 38.2322C21.7634 38.7011 21.5 39.337 21.5 40C21.5 40.663 21.7634 41.2989 22.2322 41.7678C22.7011 42.2366 23.337 42.5 24 42.5Z" fill="black"/>
</svg>
