<svg width="137" height="110" viewBox="0 0 137 110" fill="none" xmlns="http://www.w3.org/2000/svg">
<path fill-rule="evenodd" clip-rule="evenodd" d="M131.958 0H4.55797C3.35123 0 2.19392 0.479374 1.34063 1.33266C0.48734 2.18596 0.00796509 3.34326 0.00796509 4.55V104.65C0.00796509 105.857 0.48734 107.014 1.34063 107.867C2.19392 108.721 3.35123 109.2 4.55797 109.2H131.958C133.165 109.2 134.322 108.721 135.175 107.867C136.029 107.014 136.508 105.857 136.508 104.65V4.55C136.508 3.34326 136.029 2.18596 135.175 1.33266C134.322 0.479374 133.165 0 131.958 0ZM9.10797 100.1V9.1H127.408V100.1H9.10797Z" fill="white"/>
<path fill-rule="evenodd" clip-rule="evenodd" d="M134.906 8.00801L70.7969 62.608C69.9716 63.3117 68.9222 63.6974 67.8377 63.6958C66.7532 63.6941 65.7049 63.3051 64.8819 62.5989L1.58225 7.99891C0.877609 7.39257 0.375594 6.58494 0.143762 5.68471C-0.0880691 4.78447 -0.0385933 3.83483 0.285531 2.96356C0.609656 2.09229 1.19288 1.3412 1.95671 0.811371C2.72055 0.281538 3.62835 -0.00161728 4.55795 6.94867e-06H131.958C132.887 0.0017922 133.794 0.288133 134.556 0.820518C135.317 1.3529 135.898 2.1058 136.219 2.97794C136.54 3.85008 136.586 4.79964 136.352 5.6989C136.117 6.59816 135.613 7.40399 134.906 8.00801ZM119.6 9.10001H16.7975L67.8667 53.1531L119.6 9.10001Z" fill="white"/>
</svg>
